<svg width="543" height="57" viewBox="0 0 543 57" fill="none" xmlns="http://www.w3.org/2000/svg">
<path d="M66.5 1.5L66.8172 1.11346L66.6789 1H66.5V1.5ZM125 49.5L124.683 49.8865L124.821 50H125V49.5ZM232.5 49.5V50H232.695L232.839 49.8674L232.5 49.5ZM284.5 1.5V1H284.305L284.161 1.1326L284.5 1.5ZM408.5 1.5L408.906 1.20818L408.756 1H408.5V1.5ZM443 49.5L442.594 49.7918L442.744 50H443V49.5ZM541.854 49.8536C542.049 49.6583 542.049 49.3417 541.854 49.1464L538.672 45.9645C538.476 45.7692 538.16 45.7692 537.964 45.9645C537.769 46.1597 537.769 46.4763 537.964 46.6716L540.793 49.5L537.964 52.3284C537.769 52.5237 537.769 52.8403 537.964 53.0355C538.16 53.2308 538.476 53.2308 538.672 53.0355L541.854 49.8536ZM0.995819 2H5.08983V1H0.995819V2ZM13.2779 2H21.4659V1H13.2779V2ZM29.6539 2H37.8419V1H29.6539V2ZM46.0299 2H54.218V1H46.0299V2ZM62.406 2H66.5V1L62.406 1V2ZM66.1828 1.88654L69.1078 4.28654L69.7422 3.51346L66.8172 1.11346L66.1828 1.88654ZM74.9578 9.08654L80.8078 13.8865L81.4422 13.1135L75.5922 8.31346L74.9578 9.08654ZM86.6578 18.6865L92.5078 23.4865L93.1422 22.7135L87.2922 17.9135L86.6578 18.6865ZM98.3578 28.2865L104.208 33.0865L104.842 32.3135L98.9922 27.5135L98.3578 28.2865ZM110.058 37.8865L115.908 42.6865L116.542 41.9135L110.692 37.1135L110.058 37.8865ZM121.758 47.4865L124.683 49.8865L125.317 49.1135L122.392 46.7135L121.758 47.4865ZM125 50H128.839V49H125V50ZM136.518 50H144.196V49H136.518V50ZM151.875 50H159.554V49H151.875V50ZM167.232 50H174.911V49H167.232V50ZM182.589 50H190.268V49H182.589V50ZM197.946 50H205.625V49H197.946V50ZM213.304 50H220.982V49H213.304V50ZM228.661 50H232.5V49H228.661V50ZM232.839 49.8674L236.089 46.8674L235.411 46.1326L232.161 49.1326L232.839 49.8674ZM242.589 40.8674L249.089 34.8674L248.411 34.1326L241.911 40.1326L242.589 40.8674ZM255.589 28.8674L262.089 22.8674L261.411 22.1326L254.911 28.1326L255.589 28.8674ZM268.589 16.8674L275.089 10.8674L274.411 10.1326L267.911 16.1326L268.589 16.8674ZM281.589 4.86741L284.839 1.8674L284.161 1.1326L280.911 4.1326L281.589 4.86741ZM284.5 2H288.375V1H284.5V2ZM296.125 2H303.875V1H296.125V2ZM311.625 2H319.375V1H311.625V2ZM327.125 2H334.875V1H327.125V2ZM342.625 2H350.375V1H342.625V2ZM358.125 2H365.875V1H358.125V2ZM373.625 2H381.375V1H373.625V2ZM389.125 2H396.875V1H389.125V2ZM404.625 2H408.5V1H404.625V2ZM408.094 1.79182L410.25 4.79182L411.062 4.20818L408.906 1.20818L408.094 1.79182ZM414.563 10.7918L418.875 16.7918L419.687 16.2082L415.375 10.2082L414.563 10.7918ZM423.188 22.7918L427.5 28.7918L428.312 28.2082L424 22.2082L423.188 22.7918ZM431.813 34.7918L436.125 40.7918L436.937 40.2082L432.625 34.2082L431.813 34.7918ZM440.438 46.7918L442.594 49.7918L443.406 49.2082L441.25 46.2082L440.438 46.7918ZM443 50H447.104V49H443V50ZM455.312 50H463.521V49H455.312V50ZM471.729 50H479.938V49H471.729V50ZM488.146 50H496.354V49H488.146V50ZM504.562 50H512.771V49H504.562V50ZM520.979 50H529.187V49H520.979V50ZM537.396 50H541.5V49H537.396V50ZM66.5 1.5L67.1343 0.726927L66.8577 0.5H66.5V1.5ZM125 49.5L124.366 50.2731L124.642 50.5H125V49.5ZM232.5 49.5V50.5H232.891L233.178 50.2348L232.5 49.5ZM284.5 1.5V0.5H284.109L283.822 0.765197L284.5 1.5ZM408.5 1.5L409.312 0.916364L409.013 0.5H408.5V1.5ZM443 49.5L442.188 50.0836L442.487 50.5H443V49.5ZM542.207 50.2071C542.598 49.8166 542.598 49.1834 542.207 48.7929L535.843 42.4289C535.453 42.0384 534.819 42.0384 534.429 42.4289C534.038 42.8195 534.038 43.4526 534.429 43.8431L540.086 49.5L534.429 55.1569C534.038 55.5474 534.038 56.1805 534.429 56.5711C534.819 56.9616 535.453 56.9616 535.843 56.5711L542.207 50.2071ZM0.995819 2.5H5.08983V0.5H0.995819V2.5ZM13.2779 2.5H21.4659V0.5H13.2779V2.5ZM29.6539 2.5H37.8419V0.5H29.6539V2.5ZM46.0299 2.5H54.218V0.5H46.0299V2.5ZM62.406 2.5H66.5V0.5H62.406V2.5ZM65.8657 2.27307L68.7907 4.67307L70.0593 3.12693L67.1343 0.726927L65.8657 2.27307ZM74.6407 9.47307L80.4907 14.2731L81.7593 12.7269L75.9093 7.92693L74.6407 9.47307ZM86.3407 19.0731L92.1907 23.8731L93.4593 22.3269L87.6093 17.5269L86.3407 19.0731ZM98.0407 28.6731L103.891 33.4731L105.159 31.9269L99.3093 27.1269L98.0407 28.6731ZM109.741 38.2731L115.591 43.0731L116.859 41.5269L111.009 36.7269L109.741 38.2731ZM121.441 47.8731L124.366 50.2731L125.634 48.7269L122.709 46.3269L121.441 47.8731ZM125 50.5H128.839V48.5H125V50.5ZM136.518 50.5H144.196V48.5H136.518V50.5ZM151.875 50.5H159.554V48.5H151.875V50.5ZM167.232 50.5H174.911V48.5H167.232V50.5ZM182.589 50.5H190.268V48.5H182.589V50.5ZM197.946 50.5H205.625V48.5H197.946V50.5ZM213.304 50.5H220.982V48.5H213.304V50.5ZM228.661 50.5H232.5V48.5H228.661V50.5ZM233.178 50.2348L236.428 47.2348L235.072 45.7652L231.822 48.7652L233.178 50.2348ZM242.928 41.2348L249.428 35.2348L248.072 33.7652L241.572 39.7652L242.928 41.2348ZM255.928 29.2348L262.428 23.2348L261.072 21.7652L254.572 27.7652L255.928 29.2348ZM268.928 17.2348L275.428 11.2348L274.072 9.7652L267.572 15.7652L268.928 17.2348ZM281.928 5.23481L285.178 2.2348L283.822 0.765197L280.572 3.7652L281.928 5.23481ZM284.5 2.5H288.375V0.5H284.5V2.5ZM296.125 2.5H303.875V0.5H296.125V2.5ZM311.625 2.5H319.375V0.5H311.625V2.5ZM327.125 2.5H334.875V0.5H327.125V2.5ZM342.625 2.5H350.375V0.5H342.625V2.5ZM358.125 2.5H365.875V0.5H358.125V2.5ZM373.625 2.5H381.375V0.5H373.625V2.5ZM389.125 2.5H396.875V0.5H389.125V2.5ZM404.625 2.5H408.5V0.5H404.625V2.5ZM407.688 2.08364L409.844 5.08364L411.468 3.91636L409.312 0.916364L407.688 2.08364ZM414.157 11.0836L418.469 17.0836L420.093 15.9164L415.781 9.91636L414.157 11.0836ZM422.782 23.0836L427.094 29.0836L428.718 27.9164L424.406 21.9164L422.782 23.0836ZM431.407 35.0836L435.719 41.0836L437.343 39.9164L433.031 33.9164L431.407 35.0836ZM440.032 47.0836L442.188 50.0836L443.812 48.9164L441.656 45.9164L440.032 47.0836ZM443 50.5H447.104V48.5H443V50.5ZM455.312 50.5H463.521V48.5H455.312V50.5ZM471.729 50.5H479.938V48.5H471.729V50.5ZM488.146 50.5H496.354V48.5H488.146V50.5ZM504.562 50.5H512.771V48.5H504.562V50.5ZM520.979 50.5H529.187V48.5H520.979V50.5ZM537.396 50.5H541.5V48.5H537.396V50.5Z" fill="#027AEE"/>
</svg>
