<svg width="706" height="63" viewBox="0 0 706 63" fill="none" xmlns="http://www.w3.org/2000/svg">
<path d="M151.5 59L151.5 59.5L151.5 59ZM236.5 59L236.5 59.5L236.697 59.5L236.842 59.3651L236.5 59ZM291 7.99978L291 7.49978L290.803 7.49978L290.658 7.6347L291 7.99978ZM401.5 7.99978L401.874 7.6676L401.725 7.49978L401.5 7.49978L401.5 7.99978ZM449.5 62L449.126 62.3322L449.275 62.5L449.5 62.5L449.5 62ZM572 62L572 62.5L572.248 62.5L572.398 62.3023L572 62ZM613 7.9998L613 7.4998L612.752 7.4998L612.602 7.69745L613 7.9998ZM705.354 8.35337C705.549 8.15811 705.549 7.84153 705.354 7.64627L702.172 4.46428C701.976 4.26902 701.66 4.26902 701.464 4.46428C701.269 4.65955 701.269 4.97613 701.464 5.17139L704.293 7.99982L701.464 10.8282C701.269 11.0235 701.269 11.3401 701.464 11.5354C701.66 11.7306 701.976 11.7306 702.172 11.5354L705.354 8.35337ZM2.81239e-05 59.5L4.20836 59.5L4.20836 58.5L2.83476e-05 58.5L2.81239e-05 59.5ZM12.625 59.5L21.0417 59.5L21.0417 58.5L12.625 58.5L12.625 59.5ZM29.4584 59.5L37.875 59.5L37.875 58.5L29.4584 58.5L29.4584 59.5ZM46.2917 59.5L54.7084 59.5L54.7084 58.5L46.2917 58.5L46.2917 59.5ZM63.125 59.5L71.5417 59.5L71.5417 58.5L63.125 58.5L63.125 59.5ZM79.9584 59.5L88.375 59.5L88.375 58.5L79.9584 58.5L79.9584 59.5ZM96.7917 59.5L105.208 59.5L105.208 58.5L96.7917 58.5L96.7917 59.5ZM113.625 59.5L122.042 59.5L122.042 58.5L113.625 58.5L113.625 59.5ZM130.458 59.5L138.875 59.5L138.875 58.5L130.458 58.5L130.458 59.5ZM147.292 59.5L151.5 59.5L151.5 58.5L147.292 58.5L147.292 59.5ZM151.5 59.5L155.75 59.5L155.75 58.5L151.5 58.5L151.5 59.5ZM164.25 59.5L172.75 59.5L172.75 58.5L164.25 58.5L164.25 59.5ZM181.25 59.5L189.75 59.5L189.75 58.5L181.25 58.5L181.25 59.5ZM198.25 59.5L206.75 59.5L206.75 58.5L198.25 58.5L198.25 59.5ZM215.25 59.5L223.75 59.5L223.75 58.5L215.25 58.5L215.25 59.5ZM232.25 59.5L236.5 59.5L236.5 58.5L232.25 58.5L232.25 59.5ZM236.842 59.3651L239.567 56.815L238.883 56.0849L236.158 58.6349L236.842 59.3651ZM245.017 51.715L250.467 46.615L249.783 45.8848L244.333 50.9849L245.017 51.715ZM255.917 41.515L261.367 36.415L260.683 35.6848L255.233 40.7848L255.917 41.515ZM266.817 31.3149L272.267 26.2149L271.583 25.4848L266.133 30.5848L266.817 31.3149ZM277.717 21.1149L283.167 16.0149L282.483 15.2847L277.033 20.3847L277.717 21.1149ZM288.617 10.9149L291.342 8.36486L290.658 7.6347L287.933 10.1847L288.617 10.9149ZM291 8.49978L294.946 8.49978L294.946 7.49978L291 7.49978L291 8.49978ZM302.839 8.49978L310.732 8.49978L310.732 7.49978L302.839 7.49978L302.839 8.49978ZM318.625 8.49978L326.518 8.49978L326.518 7.49978L318.625 7.49978L318.625 8.49978ZM334.411 8.49978L342.304 8.49978L342.304 7.49978L334.411 7.49978L334.411 8.49978ZM350.196 8.49978L358.089 8.49978L358.089 7.49978L350.196 7.49978L350.196 8.49978ZM365.982 8.49978L373.875 8.49978L373.875 7.49978L365.982 7.49978L365.982 8.49978ZM381.768 8.49978L389.661 8.49978L389.661 7.49978L381.768 7.49978L381.768 8.49978ZM397.554 8.49978L401.5 8.49978L401.5 7.49978L397.554 7.49978L397.554 8.49978ZM401.126 8.33196L403.526 11.032L404.274 10.3676L401.874 7.6676L401.126 8.33196ZM408.326 16.432L413.126 21.832L413.874 21.1676L409.074 15.7676L408.326 16.432ZM417.926 27.232L422.726 32.632L423.474 31.9677L418.674 26.5677L417.926 27.232ZM427.526 38.0321L432.326 43.4321L433.074 42.7677L428.274 37.3677L427.526 38.0321ZM437.126 48.8321L441.926 54.2321L442.674 53.5678L437.874 48.1677L437.126 48.8321ZM446.726 59.6321L449.126 62.3322L449.874 61.6678L447.474 58.9678L446.726 59.6321ZM449.5 62.5L453.328 62.5L453.328 61.5L449.5 61.5L449.5 62.5ZM460.984 62.5L468.641 62.5L468.641 61.5L460.984 61.5L460.984 62.5ZM476.297 62.5L483.953 62.5L483.953 61.5L476.297 61.5L476.297 62.5ZM491.609 62.5L499.266 62.5L499.266 61.5L491.609 61.5L491.609 62.5ZM506.922 62.5L514.578 62.5L514.578 61.5L506.922 61.5L506.922 62.5ZM522.234 62.5L529.891 62.5L529.891 61.5L522.234 61.5L522.234 62.5ZM537.547 62.5L545.203 62.5L545.203 61.5L537.547 61.5L537.547 62.5ZM552.859 62.5L560.516 62.5L560.516 61.5L552.859 61.5L552.859 62.5ZM568.172 62.5L572 62.5L572 61.5L568.172 61.5L568.172 62.5ZM572.398 62.3023L574.961 58.9273L574.164 58.3226L571.602 61.6976L572.398 62.3023ZM580.086 52.1773L585.211 45.4273L584.414 44.8226L579.289 51.5726L580.086 52.1773ZM590.336 38.6773L595.461 31.9272L594.664 31.3225L589.539 38.0725L590.336 38.6773ZM600.586 25.1772L605.711 18.4272L604.914 17.8225L599.789 24.5725L600.586 25.1772ZM610.836 11.6772L613.398 8.30215L612.602 7.69745L610.039 11.0725L610.836 11.6772ZM613 8.4998L616.833 8.4998L616.833 7.4998L613 7.4998L613 8.4998ZM624.5 8.4998L632.167 8.4998L632.167 7.4998L624.5 7.4998L624.5 8.4998ZM639.833 8.49981L647.5 8.49981L647.5 7.49981L639.833 7.49981L639.833 8.49981ZM655.167 8.49981L662.833 8.49981L662.833 7.49981L655.167 7.49981L655.167 8.49981ZM670.5 8.49981L678.167 8.49981L678.167 7.49981L670.5 7.49981L670.5 8.49981ZM685.833 8.49981L693.5 8.49982L693.5 7.49982L685.833 7.49981L685.833 8.49981ZM701.167 8.49982L705 8.49982L705 7.49982L701.167 7.49982L701.167 8.49982ZM151.5 59L151.5 60L151.5 59ZM236.5 59L236.5 60L236.895 60L237.183 59.7301L236.5 59ZM291 7.99978L291 6.99978L290.605 6.99978L290.317 7.26961L291 7.99978ZM401.5 7.99978L402.247 7.33541L401.949 6.99978L401.5 6.99978L401.5 7.99978ZM449.5 62L448.753 62.6643L449.051 63L449.5 63L449.5 62ZM572 62L572 63L572.496 63L572.796 62.6047L572 62ZM613 7.9998L613 6.9998L612.504 6.9998L612.204 7.39509L613 7.9998ZM705.707 8.70693C706.098 8.3164 706.098 7.68324 705.707 7.29271L699.343 0.92875C698.953 0.538225 698.319 0.538225 697.929 0.928749C697.538 1.31927 697.538 1.95244 697.929 2.34296L703.586 7.99982L697.929 13.6567C697.538 14.0472 697.538 14.6804 697.929 15.0709C698.319 15.4614 698.953 15.4614 699.343 15.0709L705.707 8.70693ZM2.8012e-05 60L4.20836 60L4.20836 58L2.84595e-05 58L2.8012e-05 60ZM12.625 60L21.0417 60L21.0417 58L12.625 58L12.625 60ZM29.4584 60L37.875 60L37.875 58L29.4584 58L29.4584 60ZM46.2917 60L54.7084 60L54.7084 58L46.2917 58L46.2917 60ZM63.125 60L71.5417 60L71.5417 58L63.125 58L63.125 60ZM79.9584 60L88.375 60L88.375 58L79.9584 58L79.9584 60ZM96.7917 60L105.208 60L105.208 58L96.7917 58L96.7917 60ZM113.625 60L122.042 60L122.042 58L113.625 58L113.625 60ZM130.458 60L138.875 60L138.875 58L130.458 58L130.458 60ZM147.292 60L151.5 60L151.5 58L147.292 58L147.292 60ZM151.5 60L155.75 60L155.75 58L151.5 58L151.5 60ZM164.25 60L172.75 60L172.75 58L164.25 58L164.25 60ZM181.25 60L189.75 60L189.75 58L181.25 58L181.25 60ZM198.25 60L206.75 60L206.75 58L198.25 58L198.25 60ZM215.25 60L223.75 60L223.75 58L215.25 58L215.25 60ZM232.25 60L236.5 60L236.5 58L232.25 58L232.25 60ZM237.183 59.7301L239.908 57.1801L238.542 55.7198L235.817 58.2698L237.183 59.7301ZM245.358 52.0801L250.808 46.9801L249.442 45.5198L243.992 50.6198L245.358 52.0801ZM256.258 41.8801L261.708 36.78L260.342 35.3197L254.892 40.4197L256.258 41.8801ZM267.158 31.68L272.608 26.58L271.242 25.1197L265.792 30.2197L267.158 31.68ZM278.058 21.48L283.508 16.38L282.142 14.9196L276.692 20.0197L278.058 21.48ZM288.958 11.2799L291.683 8.72994L290.317 7.26961L287.592 9.81962L288.958 11.2799ZM291 8.99978L294.946 8.99978L294.946 6.99978L291 6.99978L291 8.99978ZM302.839 8.99978L310.732 8.99978L310.732 6.99978L302.839 6.99978L302.839 8.99978ZM318.625 8.99978L326.518 8.99978L326.518 6.99978L318.625 6.99978L318.625 8.99978ZM334.411 8.99978L342.304 8.99978L342.304 6.99978L334.411 6.99978L334.411 8.99978ZM350.196 8.99978L358.089 8.99978L358.089 6.99978L350.196 6.99978L350.196 8.99978ZM365.982 8.99978L373.875 8.99978L373.875 6.99978L365.982 6.99978L365.982 8.99978ZM381.768 8.99978L389.661 8.99978L389.661 6.99978L381.768 6.99978L381.768 8.99978ZM397.554 8.99978L401.5 8.99978L401.5 6.99978L397.554 6.99978L397.554 8.99978ZM400.753 8.66414L403.153 11.3641L404.647 10.0354L402.247 7.33541L400.753 8.66414ZM407.953 16.7642L412.753 22.1642L414.247 20.8355L409.447 15.4354L407.953 16.7642ZM417.553 27.5642L422.353 32.9642L423.847 31.6355L419.047 26.2355L417.553 27.5642ZM427.153 38.3643L431.953 43.7643L433.447 42.4355L428.647 37.0355L427.153 38.3643ZM436.753 49.1643L441.553 54.5643L443.047 53.2356L438.247 47.8356L436.753 49.1643ZM446.353 59.9643L448.753 62.6643L450.247 61.3356L447.847 58.6356L446.353 59.9643ZM449.5 63L453.328 63L453.328 61L449.5 61L449.5 63ZM460.984 63L468.641 63L468.641 61L460.984 61L460.984 63ZM476.297 63L483.953 63L483.953 61L476.297 61L476.297 63ZM491.609 63L499.266 63L499.266 61L491.609 61L491.609 63ZM506.922 63L514.578 63L514.578 61L506.922 61L506.922 63ZM522.234 63L529.891 63L529.891 61L522.234 61L522.234 63ZM537.547 63L545.203 63L545.203 61L537.547 61L537.547 63ZM552.859 63L560.516 63L560.516 61L552.859 61L552.859 63ZM568.172 63L572 63L572 61L568.172 61L568.172 63ZM572.796 62.6047L575.359 59.2297L573.766 58.0203L571.204 61.3953L572.796 62.6047ZM580.484 52.4796L585.609 45.7296L584.016 44.5202L578.891 51.2702L580.484 52.4796ZM590.734 38.9796L595.859 32.2296L594.266 31.0202L589.141 37.7702L590.734 38.9796ZM600.984 25.4796L606.109 18.7295L604.516 17.5201L599.391 24.2701L600.984 25.4796ZM611.234 11.9795L613.796 8.60451L612.204 7.39509L609.641 10.7701L611.234 11.9795ZM613 8.9998L616.833 8.9998L616.833 6.9998L613 6.9998L613 8.9998ZM624.5 8.9998L632.167 8.9998L632.167 6.9998L624.5 6.9998L624.5 8.9998ZM639.833 8.99981L647.5 8.99981L647.5 6.99981L639.833 6.99981L639.833 8.99981ZM655.167 8.99981L662.833 8.99981L662.833 6.99981L655.167 6.99981L655.167 8.99981ZM670.5 8.99981L678.167 8.99981L678.167 6.99981L670.5 6.99981L670.5 8.99981ZM685.833 8.99981L693.5 8.99982L693.5 6.99982L685.833 6.99981L685.833 8.99981ZM701.167 8.99982L705 8.99982L705 6.99982L701.167 6.99982L701.167 8.99982Z" fill="#FFAA00"/>
</svg>
