<svg width="98" height="25" viewBox="0 0 98 25" fill="none" xmlns="http://www.w3.org/2000/svg">
<path d="M7.872 24V14.624L0 0.959999H5.088L10.08 9.632L15.072 0.959999H20.16L12.288 14.624V24H7.872ZM26.3298 24.48C24.5911 24.48 23.0657 24.0907 21.7537 23.312C20.4417 22.5333 19.4177 21.4613 18.6817 20.096C17.9564 18.72 17.5937 17.1413 17.5937 15.36C17.5937 13.5573 17.9671 11.9733 18.7137 10.608C19.4604 9.232 20.4897 8.16 21.8017 7.392C23.1137 6.624 24.6231 6.24 26.3298 6.24C28.0684 6.24 29.5938 6.62933 30.9058 7.408C32.2284 8.18667 33.2577 9.264 33.9937 10.64C34.7297 12.0053 35.0977 13.5787 35.0977 15.36C35.0977 17.152 34.7244 18.736 33.9778 20.112C33.2418 21.4773 32.2124 22.5493 30.8898 23.328C29.5778 24.096 28.0578 24.48 26.3298 24.48ZM26.3298 20.416C27.7271 20.416 28.7671 19.9467 29.4497 19.008C30.1431 18.0587 30.4897 16.8427 30.4897 15.36C30.4897 13.824 30.1377 12.5973 29.4338 11.68C28.7404 10.7627 27.7058 10.304 26.3298 10.304C25.3804 10.304 24.6017 10.5173 23.9937 10.944C23.3857 11.3707 22.9324 11.9627 22.6337 12.72C22.3457 13.4773 22.2017 14.3573 22.2017 15.36C22.2017 16.9067 22.5484 18.1387 23.2417 19.056C23.9457 19.9627 24.9751 20.416 26.3298 20.416Z" fill="#FFAA00"/>
<path d="M42.1362 24.48C40.8989 24.48 39.8482 24.2453 38.9842 23.776C38.1309 23.296 37.4802 22.6613 37.0322 21.872C36.5949 21.072 36.3762 20.192 36.3762 19.232C36.3762 18.432 36.4989 17.7013 36.7442 17.04C36.9896 16.3787 37.3842 15.7973 37.9282 15.296C38.4829 14.784 39.2242 14.3573 40.1522 14.016C40.7922 13.7813 41.5549 13.5733 42.4402 13.392C43.3256 13.2107 44.3282 13.04 45.4482 12.88C46.5682 12.7093 47.8002 12.5227 49.1442 12.32L47.5762 13.184C47.5762 12.16 47.3309 11.408 46.8402 10.928C46.3496 10.448 45.5282 10.208 44.3762 10.208C43.7362 10.208 43.0696 10.3627 42.3762 10.672C41.6829 10.9813 41.1976 11.5307 40.9202 12.32L36.9842 11.072C37.4216 9.64267 38.2429 8.48 39.4482 7.584C40.6536 6.688 42.2962 6.24 44.3762 6.24C45.9016 6.24 47.2562 6.47467 48.4402 6.944C49.6242 7.41333 50.5202 8.224 51.1283 9.376C51.4696 10.016 51.6722 10.656 51.7362 11.296C51.8002 11.936 51.8322 12.6507 51.8322 13.44V24H48.0242V20.448L48.5682 21.184C47.7256 22.3467 46.8136 23.1893 45.8322 23.712C44.8616 24.224 43.6296 24.48 42.1362 24.48ZM43.0642 21.056C43.8642 21.056 44.5362 20.9173 45.0802 20.64C45.6349 20.352 46.0722 20.0267 46.3922 19.664C46.7229 19.3013 46.9469 18.9973 47.0642 18.752C47.2882 18.2827 47.4162 17.7387 47.4482 17.12C47.4909 16.4907 47.5122 15.968 47.5122 15.552L48.7922 15.872C47.5016 16.0853 46.4562 16.2667 45.6562 16.416C44.8562 16.5547 44.2109 16.6827 43.7202 16.8C43.2296 16.9173 42.7976 17.0453 42.4242 17.184C41.9976 17.3547 41.6509 17.5413 41.3842 17.744C41.1282 17.936 40.9362 18.1493 40.8082 18.384C40.6909 18.6187 40.6322 18.88 40.6322 19.168C40.6322 19.5627 40.7282 19.904 40.9202 20.192C41.1229 20.4693 41.4056 20.6827 41.7682 20.832C42.1309 20.9813 42.5629 21.056 43.0642 21.056ZM63.1925 24.48C61.4752 24.48 60.0405 24.08 58.8885 23.28C57.7365 22.48 56.8672 21.392 56.2805 20.016C55.7045 18.64 55.4165 17.088 55.4165 15.36C55.4165 13.632 55.7045 12.08 56.2805 10.704C56.8565 9.328 57.7045 8.24 58.8245 7.44C59.9445 6.64 61.3258 6.24 62.9685 6.24C64.6218 6.24 66.0618 6.63467 67.2885 7.424C68.5152 8.21333 69.4645 9.296 70.1365 10.672C70.8192 12.0373 71.1605 13.6 71.1605 15.36C71.1605 17.088 70.8245 18.64 70.1525 20.016C69.4912 21.392 68.5632 22.48 67.3685 23.28C66.1738 24.08 64.7818 24.48 63.1925 24.48ZM54.6805 24V0.959999H59.0645V12.16H58.5205V24H54.6805ZM62.4885 20.608C63.4272 20.608 64.1952 20.3733 64.7925 19.904C65.3898 19.4347 65.8325 18.8053 66.1205 18.016C66.4085 17.216 66.5525 16.3307 66.5525 15.36C66.5525 14.4 66.4032 13.5253 66.1045 12.736C65.8058 11.936 65.3418 11.3013 64.7125 10.832C64.0938 10.352 63.2992 10.112 62.3285 10.112C61.4218 10.112 60.6858 10.3307 60.1205 10.768C59.5658 11.2053 59.1605 11.8187 58.9045 12.608C58.6485 13.3973 58.5205 14.3147 58.5205 15.36C58.5205 16.4053 58.6485 17.3227 58.9045 18.112C59.1605 18.9013 59.5765 19.5147 60.1525 19.952C60.7392 20.3893 61.5178 20.608 62.4885 20.608ZM73.7212 24V0.48H78.0732V24H73.7212ZM89.622 24.48C87.8513 24.48 86.2887 24.1013 84.934 23.344C83.59 22.576 82.534 21.5253 81.766 20.192C81.0087 18.848 80.63 17.312 80.63 15.584C80.63 13.696 81.0033 12.0533 81.75 10.656C82.4967 9.25867 83.526 8.176 84.838 7.408C86.15 6.62933 87.6593 6.24 89.366 6.24C91.1793 6.24 92.7207 6.66667 93.99 7.52C95.2593 8.37333 96.198 9.57333 96.806 11.12C97.414 12.6667 97.6273 14.4853 97.446 16.576H93.142V14.976C93.142 13.216 92.8593 11.952 92.294 11.184C91.7393 10.4053 90.8273 10.016 89.558 10.016C88.0753 10.016 86.982 10.4693 86.278 11.376C85.5847 12.272 85.238 13.6 85.238 15.36C85.238 16.9707 85.5847 18.2187 86.278 19.104C86.982 19.9787 88.0113 20.416 89.366 20.416C90.2193 20.416 90.95 20.2293 91.558 19.856C92.166 19.4827 92.63 18.944 92.95 18.24L97.302 19.488C96.6513 21.0667 95.622 22.2933 94.214 23.168C92.8167 24.0427 91.286 24.48 89.622 24.48ZM83.894 16.576V13.344H95.35V16.576H83.894Z" fill="#027AEE"/>
</svg>
