<svg width="1440" height="1479" viewBox="0 0 1440 1479" fill="none" xmlns="http://www.w3.org/2000/svg">
<path d="M666.996 653.657C661.1 651.297 654.86 656.205 655.765 662.491L674.196 790.579C675.1 796.865 682.47 799.815 687.462 795.888L789.174 715.883C794.166 711.956 793.035 704.099 787.139 701.739L666.996 653.657Z" stroke="#027AEE" stroke-opacity="0.25" stroke-width="0.5"/>
<path d="M645.496 626.041C639.6 623.682 633.36 628.59 634.265 634.876L661.647 825.171C662.551 831.457 669.922 834.407 674.913 830.48L826.023 711.619C831.015 707.693 829.884 699.835 823.988 697.475L645.496 626.041Z" stroke="#027AEE" stroke-opacity="0.25" stroke-width="0.5"/>
<path d="M624.181 598.421C618.285 596.061 612.045 600.969 612.95 607.255L649.283 859.758C650.187 866.044 657.558 868.994 662.549 865.068L863.057 707.351C868.048 703.424 866.918 695.567 861.021 693.207L624.181 598.421Z" stroke="#027AEE" stroke-opacity="0.25" stroke-width="0.5"/>
<path d="M604.827 572.054C598.931 569.694 592.691 574.602 593.596 580.889L638.88 895.599C639.785 901.885 647.155 904.834 652.146 900.908L902.051 704.336C907.043 700.409 905.912 692.551 900.016 690.192L604.827 572.054Z" stroke="#027AEE" stroke-opacity="0.25" stroke-width="0.5"/>
<path d="M583.669 545.883C577.773 543.523 571.533 548.431 572.438 554.717L626.673 931.635C627.578 937.921 634.948 940.87 639.94 936.944L939.242 701.516C944.234 697.589 943.103 689.732 937.207 687.372L583.669 545.883Z" stroke="#027AEE" stroke-opacity="0.25" stroke-width="0.5"/>
<path d="M551.128 507.625C545.232 505.266 538.992 510.173 539.897 516.46L607.559 986.688C608.464 992.974 615.834 995.924 620.825 991.997L994.224 698.286C999.216 694.36 998.085 686.502 992.189 684.142L551.128 507.625Z" stroke="#027AEE" stroke-opacity="0.25" stroke-width="0.5"/>
<path d="M520.195 467.369C514.299 465.009 508.06 469.917 508.964 476.203L590.053 1039.74C590.957 1046.03 598.328 1048.98 603.319 1045.05L1050.81 693.057C1055.81 689.13 1054.68 681.273 1048.78 678.913L520.195 467.369Z" stroke="#027AEE" stroke-opacity="0.25" stroke-width="0.5"/>
<path d="M488.871 423.504C482.975 421.145 476.736 426.053 477.64 432.339L572.156 1089.19C573.06 1095.48 580.43 1098.42 585.422 1094.5L1107.01 684.22C1112.01 680.294 1110.87 672.436 1104.98 670.077L488.871 423.504Z" stroke="#027AEE" stroke-opacity="0.25" stroke-width="0.5"/>
<path d="M455.939 381.639C450.043 379.28 443.803 384.188 444.708 390.474L552.65 1140.64C553.555 1146.92 560.925 1149.87 565.917 1145.94L1161.6 677.383C1166.6 673.457 1165.47 665.599 1159.57 663.239L455.939 381.639Z" stroke="#027AEE" stroke-opacity="0.25" stroke-width="0.5"/>
<path d="M424.811 339.579C418.915 337.219 412.675 342.127 413.58 348.413L534.949 1191.89C535.853 1198.17 543.223 1201.12 548.215 1197.2L1218 670.35C1222.99 666.424 1221.86 658.566 1215.96 656.207L424.811 339.579Z" stroke="#027AEE" stroke-opacity="0.25" stroke-width="0.5"/>
<path d="M390.075 297.91C384.179 295.55 377.939 300.458 378.844 306.744L513.64 1243.53C514.544 1249.81 521.914 1252.76 526.906 1248.84L1270.79 663.709C1275.78 659.782 1274.65 651.924 1268.75 649.565L390.075 297.91Z" stroke="#027AEE" stroke-opacity="0.25" stroke-width="0.5"/>
<path d="M355.535 258.044C349.639 255.684 343.399 260.592 344.304 266.879L492.526 1296.97C493.431 1303.26 500.801 1306.21 505.793 1302.28L1323.77 658.871C1328.76 654.944 1327.63 647.086 1321.73 644.727L355.535 258.044Z" stroke="#027AEE" stroke-opacity="0.25" stroke-width="0.5"/>
<path d="M320.799 216.375C314.903 214.015 308.663 218.923 309.568 225.209L471.217 1348.61C472.122 1354.9 479.492 1357.85 484.484 1353.92L1376.56 652.229C1381.55 648.302 1380.42 640.445 1374.52 638.085L320.799 216.375Z" stroke="#027AEE" stroke-opacity="0.25" stroke-width="0.5"/>
<path d="M284.26 174.901C278.363 172.541 272.124 177.449 273.028 183.735L448.104 1400.45C449.009 1406.74 456.379 1409.69 461.371 1405.76L1427.54 645.783C1432.53 641.856 1431.4 633.999 1425.51 631.639L284.26 174.901Z" stroke="#027AEE" stroke-opacity="0.25" stroke-width="0.5"/>
</svg>
